<svg id="Layer_1" data-name="Layer 1" xmlns="http://www.w3.org/2000/svg" viewBox="0 0 100 47"><path d="M24.26,24.49h53A23.5,23.5,0,0,1,100.76,48h0a23.5,23.5,0,0,1-23.5,23.5h-53A23.51,23.51,0,0,1,.76,48h0A23.5,23.5,0,0,1,24.26,24.49Z" transform="translate(-0.76 -24.49)" style="fill:#fff"/><path d="M56.15,34.68v-.16a4.24,4.24,0,0,0-1.35-2.93,4.42,4.42,0,0,0-6.09.09,4.21,4.21,0,0,0-1.26,3c.36,2.09,1.25,2.74,2,4.29l-9.52,0,0,9.23c-1.82-.66-3.13-1.88-4.66-1.89H35a4.41,4.41,0,0,0-3,1.32,4.18,4.18,0,0,0,.09,6,4.35,4.35,0,0,0,3,1.23c2.27-.38,2.88-1.33,4.68-2l0,9.43,9.56,0c-.71-1.61-1.63-2.24-2-4.37a4.17,4.17,0,0,1,1.26-3,4.42,4.42,0,0,1,6.09-.09A4.19,4.19,0,0,1,56,57.68a.86.86,0,0,1,0,.16c0,1.44-1.16,2.69-1.85,4.36l9.35,0L63.65,39l-9.32,0C55,37.32,56.14,36.1,56.15,34.68Z" transform="translate(-0.76 -24.49)" style="fill:#010101"/></svg>