<svg id="Layer_1" data-name="Layer 1" xmlns="http://www.w3.org/2000/svg" viewBox="0 0 97.03 45.6"><path d="M23.57,24.49H75a22.8,22.8,0,0,1,22.8,22.8h0A22.8,22.8,0,0,1,75,70.09H23.57A22.8,22.8,0,0,1,.76,47.29h0A22.8,22.8,0,0,1,23.57,24.49Z" transform="translate(-0.76 -24.49)" style="fill:#fff"/><path d="M59.41,31.68a13.75,13.75,0,0,0-3.6-2.86,12.6,12.6,0,0,0-5.17-1.38c-.35,0-.7,0-1,0A13.15,13.15,0,0,0,36.7,41.11c.24,3.42,2.2,6.11,3.78,8.27l.07.1c.28.38.57.76.88,1.16a19.87,19.87,0,0,1,2.7,4.21l.09.19A5.65,5.65,0,0,1,44.84,57a1.05,1.05,0,0,1-.32.63,1.11,1.11,0,0,0-.31,1.19c.22.83,1.27.83,2.49.83h6.35c1,0,2,0,2.26-.83A1.29,1.29,0,0,0,55,57.52a.88.88,0,0,1-.27-.47c-.12-.84.78-2.74,1.67-4.15a28.59,28.59,0,0,1,1.76-2.42l.76-1,.39-.52c1.62-2.17,3.3-4.42,3.55-7.76A12.47,12.47,0,0,0,59.41,31.68ZM57,47.79l-.35.46-.6.8c-1.82,2.37-3.54,4.62-3.94,8H47.42c-.5-3.61-2.25-5.92-4.1-8.36l-.44-.57-.25-.33c-1.44-1.9-3.08-4.06-3.31-6.59A10,10,0,0,1,42.4,33a10.27,10.27,0,0,1,7.39-3c.32,0,.66,0,1,0a10.36,10.36,0,0,1,9.42,9.51c.27,3.72-1.5,6.05-3.21,8.31Z" transform="translate(-0.76 -24.49)" style="fill:#231f20"/><path d="M53.58,63.76a10.59,10.59,0,0,0-1.91-.12l-1.49,0-1.46,0H47.38c-.83,0-2.55,0-2.64,1.09a.88.88,0,0,0,.29.74,3.67,3.67,0,0,0,2.3.5l1.24,0,1.15,0h2.89c1.08,0,2.09,0,2.17-1S54.12,63.88,53.58,63.76Z" transform="translate(-0.76 -24.49)" style="fill:#231f20"/></svg>