<svg id="Layer_1" data-name="Layer 1" xmlns="http://www.w3.org/2000/svg" viewBox="0 0 32 32"><path d="M62.66,49.65a5,5,0,0,1-1.07-.2,14.92,14.92,0,0,1-2.1-.62,3.21,3.21,0,0,0-4,1.6l-.35.74A20.92,20.92,0,0,1,50.89,48a21.3,21.3,0,0,1-3.2-4.29l.74-.33a3.23,3.23,0,0,0,1.6-4,15.64,15.64,0,0,1-.63-2.12c-.08-.35-.14-.72-.19-1.07a4.79,4.79,0,0,0-4.8-4H39.59a4.78,4.78,0,0,0-2,.42A4.86,4.86,0,0,0,36,33.77a4.8,4.8,0,0,0-1,1.79,5,5,0,0,0-.17,2.06A30.51,30.51,0,0,0,61.11,64a3.21,3.21,0,0,0,.62,0,4.81,4.81,0,0,0,4.39-2.85,4.93,4.93,0,0,0,.41-2V54.34a4.8,4.8,0,0,0-3.87-4.69Zm.78,9.63a1.44,1.44,0,0,1-.14.65,1.6,1.6,0,0,1-.38.54,1.66,1.66,0,0,1-.62.35,1.5,1.5,0,0,1-.7,0A27.36,27.36,0,0,1,38,37.2a1.52,1.52,0,0,1,0-.7,1.55,1.55,0,0,1,.35-.61,1.52,1.52,0,0,1,.54-.4,1.5,1.5,0,0,1,.66-.13h4.8a1.67,1.67,0,0,1,1,.33,1.63,1.63,0,0,1,.57.92,6.69,6.69,0,0,0,.24,1.31A17.68,17.68,0,0,0,47,40.4l-2.24,1.06a1.56,1.56,0,0,0-.83.9,1.61,1.61,0,0,0,0,1.22A23.22,23.22,0,0,0,55.1,54.82,1.67,1.67,0,0,0,57.22,54l1-2.25a19.2,19.2,0,0,0,2.53.74c.42.1.87.18,1.3.24a1.67,1.67,0,0,1,.91.58,1.62,1.62,0,0,1,.34,1ZM54,32H52.88a1.63,1.63,0,0,0-1.1.57,1.67,1.67,0,0,0-.37,1.18A1.61,1.61,0,0,0,52,34.82a1.55,1.55,0,0,0,1.17.37H54a9.63,9.63,0,0,1,9.6,9.64v.85A1.65,1.65,0,0,0,64,46.85a1.63,1.63,0,0,0,1.09.57h.13A1.59,1.59,0,0,0,66.27,47a1.63,1.63,0,0,0,.52-1V44.83A12.84,12.84,0,0,0,54,32Zm3.2,12.85A1.63,1.63,0,0,0,57.67,46a1.61,1.61,0,0,0,1.13.47A1.59,1.59,0,0,0,59.93,46a1.63,1.63,0,0,0,.47-1.14A6.4,6.4,0,0,0,54,38.41a1.59,1.59,0,0,0-1.13.47,1.61,1.61,0,0,0,0,2.27,1.59,1.59,0,0,0,1.13.47,3.21,3.21,0,0,1,3.2,3.21Z" transform="translate(-34.79 -31.98)" style="fill:#010101"/></svg>